<svg width="50" height="50" viewBox="0 0 50 50" fill="none" xmlns="http://www.w3.org/2000/svg">
<g clip-path="url(#clip0_4_264)">
<g clip-path="url(#clip1_4_264)">
<rect width="50" height="50" rx="3" fill="#ECFDFF"/>
<path fill-rule="evenodd" clip-rule="evenodd" d="M27.9223 20.6957C29.4434 18.9103 30.4728 16.7222 30.3008 14.2705C29.8052 7.20631 19.9716 8.76034 18.0587 12.3257C16.1459 15.8911 16.3732 24.935 18.8454 25.5723C19.8313 25.8264 21.9315 25.2039 24.0691 23.9155L22.7274 33.4076H30.6496L27.9223 20.6957Z" fill="#915B3C"/>
<path fill-rule="evenodd" clip-rule="evenodd" d="M28.5312 22.2859C29.5256 17.8622 32.3582 14.8468 31.9256 12.8696C31.6372 11.5515 30.8685 10.7318 29.6195 10.4106C28.9735 7.79734 26.8902 6.68583 23.3694 7.07605C18.0882 7.66137 14.8649 9.85458 16.2569 14.6806C17.5364 14.6806 19.0812 14.2178 21.2172 15.0107C21.8949 15.2623 22.3797 16.0424 22.6714 17.3511H23.6367C24.5735 15.798 25.4972 15.2273 26.4078 15.639C27.3185 16.0506 27.5254 17.0505 27.0288 18.6387L27.5043 22.2859H28.5312Z" fill="#191847"/>
<path fill-rule="evenodd" clip-rule="evenodd" d="M26.1293 27.9054L23.275 27.4159C12.6844 36.5646 8.3345 54.1403 -4.64689 63.451L-1.52238 67.3239C20.998 64.5355 26.5798 43.0973 26.1293 27.9054Z" fill="#E87613"/>
<path fill-rule="evenodd" clip-rule="evenodd" d="M38.5723 63.7762C27.1274 63.7762 18.7087 63.7762 13.3163 63.7762C12.1622 63.7762 12.3797 62.1098 12.5465 61.2689C14.4719 51.564 21.9879 41.1025 21.9879 27.2878L29.273 26.1454C35.2986 35.8365 37.3824 47.7681 38.5723 63.7762Z" fill="#DDE3E9"/>
<path fill-rule="evenodd" clip-rule="evenodd" d="M38.3694 35.6713C39.4274 35.3671 40.2653 34.6578 40.883 33.5432C43.5457 28.7387 42.584 26.0934 39.7385 25.2239C36.8929 24.3544 34.3552 26.1454 29.8215 26.1454C29.5749 26.1454 29.349 26.1609 29.1439 26.1918L26.8633 26.3219C20.3201 48.4979 18.5155 63.2933 21.4495 70.7082H41.328C42.5058 73.4546 43.6328 75.7652 44.7091 77.6402H50.1256C50.6354 61.1576 46.7166 47.168 38.3694 35.6713Z" fill="#FF9B21"/>
</g>
</g>
<defs>
<clipPath id="clip0_4_264">
<rect width="50" height="50" rx="25" fill="white"/>
</clipPath>
<clipPath id="clip1_4_264">
<rect width="50" height="50" rx="25" fill="white"/>
</clipPath>
</defs>
</svg>
