<svg width="196" height="51" viewBox="0 0 196 51" fill="none" xmlns="http://www.w3.org/2000/svg">
<path d="M152.161 14.8054C151.939 15.3463 151.425 15.7653 150.626 16.0665C149.828 16.3687 148.59 16.5146 146.919 16.5146C147.222 16.943 147.477 17.4026 147.681 17.8861C148.116 18.8941 148.417 19.9538 148.578 21.0388C148.646 21.4807 148.683 21.9267 148.688 22.3728C148.696 23.8019 148.408 25.2174 147.843 26.5311C147.299 27.7945 146.517 28.9419 145.538 29.9109C144.563 30.8801 143.414 31.6607 142.152 32.211C140.841 32.7751 139.426 33.0625 137.997 33.0552C136.332 33.0617 134.689 32.676 133.202 31.9296L133.01 32.0422C132.325 32.4194 131.665 32.8405 131.035 33.3032C130.786 33.464 130.579 33.6834 130.434 33.9422C130.29 34.2009 130.211 34.4912 130.205 34.7873C130.202 34.9916 130.251 35.1937 130.347 35.3751C130.673 35.7399 131.082 36.0223 131.54 36.1984C132.105 36.4329 132.693 36.608 133.295 36.7185C133.993 36.8487 134.697 36.9425 135.405 36.9999C136.157 37.0561 136.909 37.0843 137.661 37.0843C138.954 37.0843 140.264 37.1395 141.594 37.251C142.841 37.35 144.072 37.5949 145.262 37.9806C146.566 38.3705 147.714 39.1579 148.545 40.2317C149.311 41.297 149.707 42.582 149.673 43.8918C149.685 44.9191 149.451 45.9346 148.991 46.8537C148.525 47.7525 147.847 48.5253 147.016 49.1059C146.053 49.7639 144.978 50.2411 143.842 50.5139C142.446 50.855 141.012 51.0179 139.574 50.9985C138.325 51.0005 137.076 50.9121 135.839 50.7338C134.642 50.5589 133.456 50.3203 132.285 50.0189C131.156 49.7266 130.037 49.395 128.931 49.0246C127.893 48.6778 126.863 48.3081 125.842 47.9157L126.18 46.9882C126.37 46.4702 126.724 46.0273 127.19 45.7271C127.695 45.3596 128.305 45.1624 128.931 45.1643C129.358 45.1643 129.783 45.2217 130.195 45.3332C130.594 45.4395 130.988 45.5677 131.373 45.7167C132.308 46.1212 133.275 46.4455 134.265 46.6859C134.978 46.861 135.788 47.0194 136.694 47.1612C137.657 47.3045 138.629 47.3748 139.603 47.3717C140.167 47.3717 140.817 47.3436 141.551 47.2883C142.272 47.2371 142.983 47.091 143.665 46.8537C144.301 46.6354 144.879 46.2767 145.357 45.8043C145.598 45.5507 145.785 45.2507 145.906 44.9228C146.026 44.5948 146.079 44.2458 146.059 43.897V43.7876C146.057 43.6132 146.043 43.4391 146.017 43.2665C145.983 43.0364 145.908 42.8143 145.794 42.611C145.648 42.359 145.457 42.1357 145.23 41.9523C144.918 41.7052 144.561 41.5198 144.178 41.4062C143.053 41.0499 141.887 40.8333 140.708 40.7611C139.566 40.6948 138.422 40.6611 137.278 40.66C136.084 40.6636 134.891 40.5695 133.713 40.3786C132.587 40.1993 131.488 39.8767 130.445 39.4188C129.527 39.0206 128.697 38.4466 128.002 37.7294C127.356 37.0437 126.965 36.1585 126.894 35.2208V34.9957C126.9 34.7623 126.939 34.5309 127.007 34.3079C127.123 33.9588 127.303 33.6336 127.54 33.3512C127.915 32.8953 128.344 32.486 128.818 32.1318C129.561 31.5714 130.345 31.0653 131.162 30.6175C130.298 29.95 129.561 29.1336 128.987 28.2069C128.513 27.4353 128.127 26.6139 127.834 25.7578C127.607 25.0891 127.452 24.3985 127.37 23.6974C127.317 23.1138 127.292 22.7198 127.292 22.5114V22.3738C127.281 20.9469 127.569 19.5334 128.138 18.2238C128.682 16.9611 129.458 15.8106 130.426 14.8315C131.395 13.8545 132.544 13.0732 133.811 12.5303C135.128 11.9662 136.547 11.6789 137.981 11.6862C139.189 11.6924 140.388 11.9165 141.518 12.348C142.745 12.8124 143.9 13.4494 144.946 14.2395C145.508 13.8828 146.107 13.5849 146.731 13.3506C147.487 13.0757 148.287 12.9411 149.092 12.9535C149.63 12.9647 150.166 13.0286 150.691 13.1442C151.298 13.2693 151.899 13.4256 152.488 13.6059L152.161 14.8054ZM130.877 22.3738C130.869 23.3389 131.055 24.2966 131.425 25.1888C131.766 26.0274 132.273 26.7893 132.915 27.4291C133.558 28.069 134.323 28.5738 135.165 28.9135C136.975 29.6419 138.998 29.6419 140.807 28.9135C141.651 28.5722 142.416 28.0651 143.058 27.4227C143.7 26.7802 144.206 26.0155 144.545 25.1742C145.272 23.3674 145.272 21.3511 144.545 19.5443C144.203 18.7079 143.696 17.9482 143.054 17.3099C142.413 16.6717 141.65 16.1677 140.809 15.8278C139 15.0995 136.978 15.0995 135.168 15.8278C134.325 16.1682 133.558 16.6746 132.915 17.3165C132.273 17.9585 131.766 18.7229 131.427 19.5641C131.058 20.4566 130.872 21.4138 130.88 22.379M161.64 14.9774C160.687 14.9774 159.774 15.3547 159.101 16.0269C158.426 16.6992 158.047 17.6109 158.047 18.5615C158.047 19.5121 158.426 20.4238 159.101 21.0961C159.434 21.4287 159.83 21.6927 160.265 21.8728C160.701 22.0528 161.168 22.1456 161.64 22.1456C161.953 22.1424 162.265 22.0976 162.565 22.0101C162.858 21.9246 163.142 21.81 163.412 21.6662C163.501 21.6182 163.596 21.5797 163.693 21.5515C163.784 21.5207 163.88 21.5045 163.976 21.5036C164.121 21.5011 164.264 21.5402 164.387 21.6161C164.508 21.6891 164.622 21.7766 164.723 21.8756L164.819 21.9715C164.204 22.5599 163.436 22.9656 162.602 23.1429C162.288 23.2159 161.965 23.2524 161.643 23.2524C160.806 23.2532 159.983 23.0305 159.262 22.6073C158.458 22.1438 157.809 21.4537 157.398 20.624C156.987 19.7942 156.832 18.862 156.952 17.9445C157.071 17.0247 157.462 16.1606 158.073 15.4614C158.685 14.7621 159.491 14.259 160.39 14.0155C160.797 13.8987 161.219 13.8425 161.643 13.8456C161.959 13.8435 162.275 13.8769 162.585 13.9446C163.43 14.1251 164.208 14.5353 164.833 15.1296L164.738 15.2254C164.631 15.3357 164.51 15.4304 164.377 15.5068C164.24 15.5766 164.089 15.6113 163.936 15.6079C163.84 15.6101 163.745 15.5949 163.654 15.5631C163.57 15.5332 163.489 15.4955 163.412 15.4506C163.146 15.2973 162.861 15.1789 162.565 15.0983C162.262 15.0243 161.952 14.9837 161.64 14.9774ZM165.369 18.5615C165.369 17.728 165.592 16.9096 166.016 16.1905C166.221 15.8424 166.469 15.5204 166.754 15.2338C167.335 14.6623 168.053 14.2486 168.839 14.0321C169.689 13.796 170.589 13.8041 171.434 14.0557C172.28 14.3072 173.036 14.7919 173.617 15.4537C174.199 16.1156 174.583 16.9276 174.723 17.7965C174.864 18.6654 174.755 19.5562 174.41 20.3666C174.152 20.9813 173.764 21.5338 173.273 21.9868C172.782 22.4398 172.2 22.7829 171.565 22.9929C170.93 23.202 170.257 23.273 169.592 23.2011C168.927 23.1292 168.285 22.916 167.71 22.576C167.359 22.3745 167.036 22.1286 166.748 21.8444C166.466 21.5554 166.221 21.233 166.018 20.8845C165.606 20.1779 165.383 19.3782 165.369 18.5615ZM166.48 18.5615C166.483 19.2189 166.668 19.8628 167.016 20.4215C167.364 20.9802 167.861 21.4318 168.451 21.7261C169.042 22.0204 169.703 22.1459 170.36 22.0886C171.018 22.0313 171.647 21.7934 172.177 21.4014C172.706 21.008 173.115 20.4766 173.36 19.866C173.605 19.2555 173.675 18.5894 173.564 17.9414C173.453 17.2934 173.163 16.6886 172.729 16.1939C172.294 15.6992 171.73 15.3337 171.1 15.1379C170.564 14.9739 169.997 14.9379 169.444 15.0329C168.891 15.1278 168.369 15.351 167.919 15.6844C167.469 16.0178 167.105 16.452 166.855 16.9518C166.605 17.4517 166.476 18.0031 166.48 18.5615ZM183.694 23.1169C183.65 23.0716 183.615 23.019 183.59 22.9616C183.558 22.8934 183.534 22.8217 183.519 22.7479C183.501 22.6457 183.493 22.5421 183.494 22.4384V22.0778C183.228 22.3245 182.937 22.5425 182.625 22.7281C182.38 22.8711 182.122 22.9908 181.855 23.0856C181.631 23.1621 181.399 23.2121 181.164 23.2347C180.958 23.2557 180.751 23.2662 180.543 23.2659C179.927 23.2722 179.316 23.1475 178.752 22.9001C178.212 22.6621 177.726 22.3195 177.322 21.8923C176.913 21.4599 176.591 20.9532 176.374 20.3999C175.914 19.2227 175.914 17.9169 176.374 16.7397C176.591 16.1864 176.913 15.6798 177.322 15.2473C177.735 14.8103 178.235 14.4628 178.789 14.2264C179.343 13.9901 179.94 13.87 180.543 13.8737C180.751 13.8737 180.958 13.8841 181.164 13.905C181.399 13.9269 181.632 13.9779 181.855 14.0572C182.123 14.1499 182.38 14.2687 182.625 14.4115C182.939 14.5918 183.234 14.8023 183.508 15.0389V10.6836H184.62V23.1169H183.694ZM180.537 14.9857C180.061 14.9809 179.59 15.0843 179.161 15.288C178.754 15.4814 178.389 15.7518 178.086 16.0842C177.783 16.4202 177.547 16.8098 177.389 17.2327C177.222 17.66 177.139 18.1165 177.141 18.5761C177.139 19.0419 177.222 19.5047 177.389 19.9413C177.546 20.3655 177.782 20.7563 178.086 21.093C178.389 21.4223 178.755 21.6891 179.161 21.8777C179.593 22.0737 180.063 22.1695 180.537 22.1591C181.083 22.1588 181.622 22.0407 182.117 21.8131C182.635 21.5895 183.106 21.2726 183.508 20.8783V16.2895C183.109 15.8838 182.637 15.5552 182.117 15.3203C181.621 15.098 181.082 14.9833 180.537 14.9857ZM191.291 13.8685C192.065 13.8685 192.827 14.0617 193.507 14.4306C194.188 14.7994 194.764 15.3321 195.184 15.98C195.466 16.4135 195.678 16.8888 195.813 17.3869C195.839 17.487 195.854 17.5891 195.855 17.6913C195.858 17.8361 195.83 17.9799 195.773 18.1133C195.72 18.2405 195.646 18.3578 195.554 18.4604C195.461 18.5613 195.349 18.6419 195.224 18.697C195.096 18.7562 194.956 18.7857 194.815 18.7835H187.708C187.735 19.4595 187.959 20.113 188.352 20.6648C188.745 21.2165 189.291 21.6426 189.923 21.8913C190.357 22.0632 190.821 22.1508 191.288 22.1487C191.454 22.1466 191.619 22.1299 191.782 22.0976C192.146 22.0228 192.5 21.9027 192.834 21.7402C192.998 21.6641 193.156 21.5765 193.308 21.4786C193.395 21.4252 193.49 21.3872 193.59 21.366C193.682 21.3441 193.777 21.3327 193.872 21.3316C193.955 21.3316 194.039 21.342 194.121 21.3629C194.191 21.383 194.26 21.4114 194.324 21.4473C194.392 21.4869 194.456 21.5317 194.515 21.5828L194.718 21.7495C194.267 22.1953 193.741 22.5589 193.164 22.824C192.871 22.9595 192.567 23.0658 192.253 23.1419C191.939 23.2211 191.615 23.2607 191.291 23.2607C190.868 23.2624 190.448 23.2055 190.041 23.0919C189.647 22.9821 189.267 22.8232 188.913 22.6187C188.562 22.4162 188.24 22.1692 187.953 21.884C187.374 21.3063 186.954 20.5894 186.735 19.8027C186.622 19.3968 186.565 18.9775 186.565 18.5563C186.563 17.9268 186.692 17.3057 186.944 16.7283C187.431 15.6071 188.332 14.7153 189.46 14.2375C190.038 13.9892 190.661 13.8635 191.291 13.8685ZM191.291 14.9774C190.416 14.9721 189.568 15.2844 188.908 15.856C188.262 16.4223 187.846 17.2045 187.74 18.055C187.778 17.9643 187.83 17.8799 187.891 17.8049C187.929 17.759 187.976 17.7226 188.03 17.6985C188.084 17.6744 188.143 17.6633 188.202 17.6662H194.73C194.55 16.8711 194.095 16.1644 193.444 15.6705C193.138 15.4398 192.796 15.2625 192.431 15.1462C192.066 15.0301 191.685 14.9731 191.302 14.9774H191.291ZM158.841 26.7875V39.2208H157.73V26.7875H158.841ZM161.448 31.4356C161.527 31.3351 161.614 31.241 161.708 31.1542C161.796 31.0656 161.891 30.9823 161.989 30.9041C162.084 30.8207 162.184 30.7457 162.292 30.679C162.642 30.4716 163.015 30.3028 163.403 30.1756C163.839 30.0401 164.293 29.9755 164.748 29.9839C165.172 29.9734 165.595 30.037 165.996 30.1756C166.333 30.2976 166.646 30.4799 166.918 30.7134C167.175 30.9385 167.392 31.2084 167.555 31.5096C167.726 31.8223 167.861 32.1526 167.956 32.4955C168.055 32.8509 168.124 33.2146 168.164 33.5815C168.205 33.9462 168.226 34.3131 168.227 34.68V39.227H167.287C167.242 39.1591 167.202 39.0877 167.169 39.0134C167.121 38.8914 167.099 38.7608 167.104 38.6298V38.2109C166.856 38.4172 166.587 38.5965 166.3 38.7455C166.029 38.8904 165.746 39.0102 165.454 39.1061C165.189 39.1962 164.916 39.26 164.638 39.2968C164.391 39.3339 164.141 39.3527 163.891 39.3531H163.761C163.377 39.3461 162.996 39.2778 162.633 39.1509C162.291 39.0328 161.972 38.8545 161.693 38.6246C161.423 38.4019 161.202 38.1258 161.044 37.8138C160.883 37.4831 160.802 37.1194 160.808 36.7518C160.801 36.3505 160.887 35.953 161.059 35.5898C161.236 35.2334 161.501 34.928 161.829 34.7029C162.22 34.4383 162.657 34.2476 163.118 34.1401C163.721 34.0019 164.339 33.9375 164.957 33.9483C165.166 33.9483 165.386 33.9483 165.62 33.9765C165.854 34.0046 166.074 34.0129 166.277 34.038C166.48 34.063 166.655 34.0828 166.808 34.1057L167.089 34.1505C167.062 33.6292 166.968 33.1136 166.808 32.6164C166.693 32.2711 166.511 31.9517 166.272 31.6764C166.078 31.457 165.829 31.2935 165.55 31.2032C164.984 31.0286 164.378 31.0286 163.811 31.2032C163.537 31.297 163.276 31.4252 163.033 31.5857L162.751 31.7629C162.629 31.8306 162.49 31.8631 162.35 31.8567C162.096 31.8496 161.851 31.757 161.657 31.594L161.448 31.4356ZM163.761 38.2411C164.019 38.2375 164.275 38.2113 164.528 38.1629C165.121 38.046 165.699 37.8606 166.249 37.6106C166.539 37.4824 166.82 37.3396 167.096 37.1833V35.1927L166.813 35.1583C166.641 35.1366 166.468 35.1216 166.294 35.1135L165.637 35.0801C165.403 35.0801 165.177 35.0624 164.963 35.0624C164.555 35.0603 164.146 35.0874 163.741 35.1448C163.409 35.1898 163.086 35.2846 162.783 35.4262C162.529 35.5422 162.31 35.7218 162.147 35.9472C161.987 36.187 161.907 36.4704 161.916 36.7581C161.917 36.953 161.963 37.1458 162.051 37.3209C162.144 37.5043 162.275 37.6648 162.435 37.794C162.603 37.9326 162.794 38.041 162.999 38.1119C163.236 38.19 163.484 38.2307 163.733 38.2307L163.761 38.2411ZM170.532 39.2208V26.7948H171.643V31.2459C171.896 30.9823 172.181 30.7499 172.489 30.5539C172.734 30.3984 172.995 30.2698 173.267 30.1704C173.495 30.087 173.732 30.0318 173.973 30.0078C174.182 29.9892 174.392 29.9798 174.602 29.9797C175.205 29.9734 175.803 30.0923 176.358 30.3288C176.912 30.5653 177.411 30.9142 177.823 31.3533C178.23 31.7868 178.551 32.2933 178.768 32.8457C179.23 34.0225 179.23 35.3291 178.768 36.5059C178.551 37.0577 178.231 37.5632 177.823 37.9951C177.418 38.4217 176.932 38.7642 176.394 39.0029C175.829 39.251 175.219 39.3768 174.602 39.3719C174.405 39.3719 174.196 39.3719 173.976 39.3406C173.738 39.3151 173.503 39.2641 173.276 39.1885C173.004 39.0956 172.743 38.974 172.497 38.8258C172.192 38.6357 171.909 38.4138 171.651 38.164V38.7101C171.658 38.8216 171.643 38.9332 171.609 39.0394C171.583 39.1072 171.553 39.1686 171.522 39.2333L170.532 39.2208ZM174.6 38.2619C175.075 38.2672 175.546 38.165 175.976 37.9628C176.382 37.7692 176.747 37.4996 177.051 37.1687C177.353 36.8331 177.591 36.4433 177.75 36.0202C177.914 35.5908 177.998 35.1364 177.996 34.6768C177.998 34.209 177.914 33.7446 177.75 33.3063C177.593 32.8821 177.356 32.4919 177.051 32.1568C176.749 31.8258 176.383 31.558 175.976 31.3689C175.544 31.1752 175.074 31.0791 174.6 31.0875C174.332 31.0875 174.066 31.1188 173.806 31.1803C173.538 31.2428 173.277 31.3293 173.026 31.4398C172.511 31.6719 172.043 31.9942 171.643 32.3913V36.9717C172.037 37.375 172.507 37.6966 173.026 37.918C173.278 38.0264 173.538 38.1119 173.806 38.1734C174.067 38.2338 174.334 38.264 174.602 38.264L174.6 38.2619ZM179.886 37.9347L180.326 37.7158C180.437 37.6585 180.561 37.6299 180.687 37.6325C180.788 37.6325 180.89 37.645 180.989 37.6669C181.126 37.7085 181.256 37.7742 181.372 37.8586C181.729 38.1063 182.154 38.2381 182.588 38.2359C182.83 38.2359 183.07 38.2025 183.302 38.1348C183.534 38.0723 183.755 37.9691 183.954 37.8326C184.15 37.6992 184.314 37.5241 184.436 37.3209C184.566 37.0978 184.637 36.8446 184.639 36.5861C184.63 36.4179 184.597 36.2518 184.54 36.0932C184.48 35.9331 184.383 35.7889 184.259 35.6711C184.089 35.5185 183.899 35.3898 183.695 35.2886C183.408 35.1434 183.112 35.018 182.808 34.9134L182.617 34.8509C182.315 34.7466 182.016 34.6383 181.72 34.5195C181.433 34.4045 181.164 34.249 180.921 34.0578C180.685 33.8647 180.493 33.6238 180.357 33.3512C180.198 33.0154 180.121 32.6467 180.134 32.2756C180.13 31.9478 180.21 31.6243 180.365 31.3356C180.516 31.0636 180.721 30.8249 180.969 30.6373C181.218 30.4475 181.499 30.3025 181.798 30.209C182.093 30.1131 182.4 30.0568 182.71 30.0422H182.788C183.078 30.0506 183.364 30.1068 183.635 30.209C183.875 30.2986 184.104 30.4153 184.317 30.555C184.505 30.6769 184.679 30.8155 184.84 30.9687C184.986 31.1105 185.121 31.2314 185.201 31.3293L185.037 31.4679C184.943 31.5482 184.843 31.618 184.735 31.6785C184.652 31.7322 184.557 31.764 184.458 31.7709C184.359 31.7779 184.26 31.7597 184.171 31.7181C184.097 31.6878 184.026 31.653 183.956 31.6138C183.883 31.5742 183.81 31.5294 183.736 31.4846C183.661 31.4361 183.583 31.3919 183.502 31.3522C183.366 31.2783 183.219 31.2261 183.068 31.197C182.726 31.1286 182.371 31.1638 182.049 31.298C181.88 31.3689 181.725 31.47 181.592 31.5972C181.482 31.6982 181.395 31.821 181.336 31.9578C181.288 32.0563 181.262 32.1634 181.257 32.2725C181.249 32.4851 181.3 32.6946 181.407 32.878C181.51 33.0448 181.647 33.1865 181.81 33.298C181.986 33.4168 182.175 33.5169 182.374 33.593C182.585 33.6722 182.8 33.7514 183.02 33.8274L183.107 33.8525C183.439 33.9619 183.764 34.089 184.081 34.2349C184.385 34.3788 184.67 34.5611 184.926 34.779C185.172 34.9895 185.374 35.2459 185.522 35.5335C185.68 35.8566 185.758 36.212 185.75 36.5715C185.752 36.9396 185.668 37.3031 185.505 37.6335C185.342 37.9691 185.113 38.2692 184.831 38.5142C184.535 38.7747 184.194 38.98 183.824 39.1176C183.429 39.2666 183.008 39.3417 182.585 39.3396C182.054 39.341 181.531 39.2144 181.059 38.9706C180.586 38.7298 180.183 38.3734 179.886 37.9347ZM107.746 26.8646C107.624 26.8959 107.502 26.9209 107.378 26.9375C107.509 26.9542 107.638 26.9792 107.765 27.0136L108.12 27.1095C108.222 27.1376 108.326 27.172 108.425 27.2075L115.969 31.0115L118.736 32.4184L122.386 34.2579C122.72 34.4267 123.025 34.6487 123.288 34.9144C123.562 35.1885 123.799 35.497 123.994 35.8316C124.192 36.164 124.347 36.5194 124.456 36.8904C124.574 37.2542 124.632 37.6346 124.631 38.016V38.5267L118.194 35.2907L117.277 34.829L114.998 33.6805L114.473 33.4158L107.037 29.6795C106.595 29.4656 106.167 29.2258 105.754 28.9615C105.496 28.7926 105.27 28.5803 105.085 28.3341C104.943 28.1416 104.854 27.9151 104.829 27.6775C104.802 27.3819 104.79 27.0853 104.792 26.7885V26.6864C104.789 26.3894 104.8 26.0923 104.829 25.7974C104.857 25.589 104.946 25.392 105.085 25.2346C105.276 25.0314 105.503 24.8646 105.754 24.7448C106.055 24.5885 106.484 24.3925 107.037 24.1476L114.481 20.3884L115.004 20.1237L117.283 18.9804L118.197 18.5219L124.631 15.2786V15.7914C124.63 16.1728 124.571 16.5521 124.456 16.9169C124.345 17.2994 124.189 17.6679 123.994 18.0154C123.802 18.3645 123.565 18.6876 123.288 18.9752C123.029 19.2483 122.723 19.4734 122.386 19.6422L118.767 21.4473L116.002 22.824L108.431 26.6165C108.214 26.7262 107.984 26.8074 107.746 26.8583M21.8245 38.0358V41.623H0.145413V40.3359C0.127755 39.2068 0.51603 38.1086 1.24015 37.2396L16.826 15.7319H1.32492V12.1427H21.8496V13.3756C21.888 14.3709 21.5967 15.3512 21.0207 16.1655L4.9409 38.4079C5.02986 38.3432 5.12405 38.287 5.22348 38.239C5.31662 38.2025 5.4464 38.1598 5.60653 38.1119C5.7991 38.0629 5.99796 38.0389 6.19681 38.042L21.8245 38.0358Z" fill="#2E368E"/>
<path d="M113.481 35.3865C111.826 36.9204 109.757 37.9389 107.528 38.3167C105.3 38.6944 103.009 38.4149 100.938 37.5126C98.865 36.6092 97.1023 35.1231 95.8658 33.2365C94.6276 31.3487 93.9683 29.1428 93.9683 26.888C93.9683 24.6333 94.6276 22.4273 95.8658 20.5395C97.1039 18.6532 98.8663 17.167 100.938 16.2645C103.009 15.3618 105.3 15.082 107.529 15.4598C109.757 15.8376 111.826 16.8563 113.481 18.3906L116.273 16.9815L116.787 16.7262C116.619 16.5311 116.443 16.3433 116.259 16.1634C115.342 15.2446 114.309 14.4477 113.187 13.7924C112.049 13.1304 110.831 12.6156 109.563 12.2604C106.276 11.3489 102.776 11.5764 99.6356 12.9055C96.0404 14.3775 93.1479 17.1649 91.5528 20.6948C89.9553 24.2284 89.7745 28.2363 91.0473 31.8983C92.3177 35.5571 94.9467 38.5927 98.3943 40.3817C101.839 42.1682 105.84 42.57 109.573 41.5042C110.842 41.1488 112.06 40.634 113.198 39.9722C114.321 39.3189 115.353 38.5233 116.27 37.6054C116.463 37.4251 116.629 37.2395 116.798 37.0426L116.282 36.7831L113.481 35.3865ZM27.9461 3.84475C27.9471 3.37148 28.0644 2.90564 28.2879 2.48796C28.5114 2.07028 28.8342 1.71349 29.2282 1.44876C29.6223 1.18413 30.0757 1.02027 30.5485 0.971657C31.0213 0.923044 31.4988 0.991181 31.9389 1.17004C32.3789 1.34891 32.7679 1.63298 33.0715 1.99715C33.375 2.36132 33.5838 2.79437 33.6794 3.258C33.7764 3.72153 33.7579 4.20169 33.6255 4.65645C33.493 5.11121 33.2506 5.52671 32.9195 5.86659C32.5843 6.20432 32.1709 6.45489 31.7156 6.59627C31.2604 6.73765 30.7772 6.76552 30.3086 6.67742C29.84 6.58932 29.4003 6.38796 29.0282 6.09102C28.656 5.79409 28.3628 5.41068 28.1743 4.97448C28.0219 4.61838 27.9442 4.23498 27.9461 3.84788V3.84475ZM32.6035 41.575H29.0126V12.1426H32.6035V41.575ZM44.6518 12.1426C44.7565 12.3542 44.8402 12.5741 44.9062 12.8013C44.9983 13.2098 45.0359 13.6298 45.0181 14.0488V16.6022C45.6868 15.7857 46.4502 15.0511 47.2924 14.4136C48.8457 13.2367 50.6333 12.4035 52.5358 11.9696C53.4183 11.7687 54.3203 11.6652 55.2256 11.6612C56.7217 11.6365 58.2043 11.9471 59.5637 12.5699C60.8407 13.1753 61.9589 14.068 62.8301 15.1775C63.7759 16.4033 64.4805 17.7962 64.9065 19.2827C65.4141 21.0304 65.6601 22.8449 65.6371 24.6656V41.5584H62.0598V24.6645C62.0598 21.663 61.4748 19.341 60.3057 17.7027C59.1356 16.0644 57.3334 15.2473 54.9001 15.2536C53.6074 15.2427 52.3202 15.4218 51.08 15.7851C49.9792 16.1041 48.9368 16.5967 47.9926 17.2441C47.1535 17.8142 46.4352 18.543 45.8784 19.389C45.3665 20.1533 45.0634 21.0373 44.9993 21.9538V41.5688H41.4221V12.1426H44.6518ZM75.5692 41.5698V15.4474H70.2598V13.3755C70.2598 12.5157 71.4027 12.0864 73.6874 12.0864H75.5692V8.49916C75.5573 7.50199 75.7224 6.51056 76.0569 5.57061C76.3667 4.71602 76.8461 3.93438 77.4677 3.2705C78.0915 2.61518 78.8477 2.09906 79.6865 1.75621C80.6075 1.3826 81.5944 1.19689 82.5887 1.2101C83.0691 1.21531 83.5474 1.26325 84.0194 1.35392C84.5532 1.44876 85.0785 1.58112 85.5935 1.74787C86.1189 1.92087 86.6327 2.12931 87.1309 2.37005C87.5935 2.58683 88.0394 2.83695 88.4653 3.11834L87.8761 3.96252C87.6314 4.31317 87.2997 4.59468 86.9132 4.77959C86.4904 4.9255 86.0435 4.99115 85.5966 4.97135C84.9342 4.93957 84.2788 4.82221 83.6468 4.62222L83.337 4.56594C83.2258 4.54633 83.1137 4.53242 83.0011 4.52425C82.8744 4.52425 82.7331 4.50966 82.5803 4.50966C82.0656 4.49953 81.5574 4.62577 81.1078 4.87547C80.6891 5.11726 80.3249 5.44346 80.0392 5.83324C79.7493 6.22615 79.5264 6.66491 79.3788 7.13076C79.2334 7.57731 79.1572 8.0433 79.1527 8.5127V12.1447H87.3821V15.4505H79.1632V41.5698H75.5692Z" fill="#28A8E0"/>
</svg>
