<svg width="1383" height="29" viewBox="0 0 1383 29" fill="none" xmlns="http://www.w3.org/2000/svg">
<mask id="path-1-inside-1_4_129" fill="white">
<path d="M0 0H1383V29H0V0Z"/>
</mask>
<path d="M0 0H1383V29H0V0Z" fill="white"/>
<path d="M1383 28H0V30H1383V28Z" fill="black" mask="url(#path-1-inside-1_4_129)"/>
<path d="M1383 28H0V30H1383V28Z" fill="black" mask="url(#path-1-inside-1_4_129)"/>
<g clip-path="url(#clip0_4_129)">
<path d="M1286.12 1H1289.88C1290.5 1 1291 1.52246 1291 2.17188V10.375H1295.11C1295.95 10.375 1296.36 11.4248 1295.77 12.04L1288.64 19.4717C1288.29 19.8379 1287.71 19.8379 1287.36 19.4717L1280.22 12.04C1279.63 11.4248 1280.05 10.375 1280.88 10.375H1285V2.17188C1285 1.52246 1285.5 1 1286.12 1ZM1300 19.3594V24.8281C1300 25.4775 1299.5 26 1298.88 26H1277.12C1276.5 26 1276 25.4775 1276 24.8281V19.3594C1276 18.71 1276.5 18.1875 1277.12 18.1875H1284L1286.3 20.5801C1287.24 21.5615 1288.76 21.5615 1289.7 20.5801L1292 18.1875H1298.88C1299.5 18.1875 1300 18.71 1300 19.3594ZM1294.19 23.6562C1294.19 23.1191 1293.77 22.6797 1293.25 22.6797C1292.73 22.6797 1292.31 23.1191 1292.31 23.6562C1292.31 24.1934 1292.73 24.6328 1293.25 24.6328C1293.77 24.6328 1294.19 24.1934 1294.19 23.6562ZM1297.19 23.6562C1297.19 23.1191 1296.77 22.6797 1296.25 22.6797C1295.73 22.6797 1295.31 23.1191 1295.31 23.6562C1295.31 24.1934 1295.73 24.6328 1296.25 24.6328C1296.77 24.6328 1297.19 24.1934 1297.19 23.6562Z" fill="#1F6CAB"/>
</g>
<path d="M1350 2H1332C1330.35 2 1329 3.40137 1329 5.125V19.1875C1329 20.9111 1330.35 22.3125 1332 22.3125H1336.5V26.4141C1336.5 26.8926 1337.02 27.1709 1337.4 26.8877L1343.25 22.3125H1350C1351.65 22.3125 1353 20.9111 1353 19.1875V5.125C1353 3.40137 1351.65 2 1350 2Z" fill="#1F6CAB"/>
<defs>
<clipPath id="clip0_4_129">
<rect width="24" height="25" fill="white" transform="translate(1276 1)"/>
</clipPath>
</defs>
</svg>
