<svg width="138" height="36" viewBox="0 0 138 36" fill="none" xmlns="http://www.w3.org/2000/svg">
<path d="M107.154 10.1245C106.997 10.5058 106.635 10.8011 106.072 11.0134C105.509 11.2264 104.637 11.3293 103.459 11.3293C103.672 11.6312 103.852 11.9552 103.996 12.2961C104.302 13.0065 104.515 13.7535 104.628 14.5183C104.676 14.8298 104.702 15.1442 104.706 15.4586C104.711 16.466 104.508 17.4637 104.11 18.3897C103.727 19.2803 103.175 20.0891 102.485 20.7721C101.798 21.4553 100.988 22.0055 100.099 22.3934C99.1743 22.791 98.177 22.9936 97.17 22.9885C95.9962 22.9931 94.8379 22.7212 93.7897 22.1951L93.6547 22.2744C93.1715 22.5403 92.7068 22.8371 92.2627 23.1633C92.0866 23.2766 91.9411 23.4313 91.8391 23.6137C91.7371 23.7961 91.6816 24.0007 91.6776 24.2094C91.6754 24.3534 91.7101 24.4959 91.7772 24.6237C92.0074 24.8808 92.2958 25.0799 92.6182 25.2041C93.0166 25.3694 93.4312 25.4928 93.8554 25.5707C94.3475 25.6625 94.844 25.7286 95.3427 25.769C95.8731 25.8087 96.4028 25.8285 96.9332 25.8285C97.8443 25.8285 98.7679 25.8674 99.7056 25.946C100.584 26.0158 101.452 26.1885 102.291 26.4603C103.21 26.7352 104.019 27.2901 104.605 28.0471C105.145 28.798 105.424 29.7038 105.4 30.6271C105.409 31.3512 105.244 32.0669 104.919 32.7148C104.591 33.3484 104.113 33.8931 103.527 34.3024C102.848 34.7662 102.09 35.1025 101.29 35.2948C100.306 35.5353 99.2951 35.6501 98.2818 35.6364C97.4007 35.6379 96.5208 35.5755 95.6488 35.4498C94.8053 35.3266 93.969 35.1583 93.1435 34.9459C92.3474 34.7399 91.5587 34.5062 90.7791 34.2451C90.0477 34.0006 89.3218 33.74 88.6021 33.4634L88.8403 32.8096C88.9739 32.4445 89.224 32.1323 89.5522 31.9207C89.9083 31.6617 90.3381 31.5227 90.7791 31.524C91.0801 31.524 91.3796 31.5644 91.6703 31.643C91.9513 31.718 92.2295 31.8083 92.5009 31.9134C93.1596 32.1985 93.8415 32.4271 94.5393 32.5966C95.0417 32.72 95.6127 32.8317 96.2515 32.9316C96.9302 33.0326 97.6155 33.0822 98.3017 33.08C98.6993 33.08 99.1574 33.0601 99.6753 33.0212C100.183 32.9851 100.684 32.8821 101.165 32.7148C101.613 32.561 102.021 32.3081 102.358 31.9751C102.528 31.7963 102.659 31.5849 102.744 31.3537C102.83 31.1226 102.866 30.8766 102.853 30.6307V30.5536C102.851 30.4306 102.841 30.3079 102.823 30.1863C102.799 30.0241 102.746 29.8675 102.666 29.7242C102.563 29.5466 102.428 29.3892 102.268 29.2599C102.048 29.0857 101.797 28.9551 101.527 28.875C100.733 28.6238 99.9118 28.4711 99.0807 28.4203C98.2757 28.3735 97.4696 28.3497 96.6632 28.349C95.8213 28.3515 94.9807 28.2852 94.1498 28.1506C93.3561 28.0242 92.582 27.7969 91.8466 27.4741C91.1998 27.1934 90.6147 26.7888 90.1247 26.2832C89.6692 25.7999 89.3936 25.1759 89.3435 24.515V24.3563C89.3479 24.1918 89.3752 24.0287 89.4231 23.8715C89.505 23.6254 89.6319 23.3962 89.7986 23.1971C90.0633 22.8758 90.3657 22.5872 90.6994 22.3376C91.2237 21.9426 91.776 21.5858 92.3519 21.2702C91.7429 20.7997 91.2237 20.2242 90.8189 19.571C90.485 19.0271 90.2123 18.4481 90.0059 17.8446C89.8461 17.3733 89.7365 16.8865 89.6791 16.3923C89.6415 15.9809 89.6238 15.7032 89.6238 15.5563V15.4593C89.6162 14.4535 89.8195 13.4572 90.2206 12.5341C90.604 11.644 91.1509 10.833 91.8333 10.1429C92.5162 9.45423 93.3263 8.90346 94.2191 8.52083C95.1472 8.12321 96.1478 7.92064 97.1582 7.92579C98.0103 7.9302 98.855 8.08814 99.6517 8.39228C100.517 8.71966 101.33 9.16866 102.068 9.72561C102.465 9.47417 102.886 9.26418 103.326 9.09898C103.859 8.90522 104.423 8.81035 104.991 8.81909C105.37 8.82703 105.747 8.87206 106.118 8.95353C106.546 9.04168 106.969 9.15187 107.385 9.27896L107.154 10.1245ZM92.1513 15.4593C92.1454 16.1396 92.2767 16.8147 92.5371 17.4435C92.7776 18.0347 93.1349 18.5717 93.5878 19.0228C94.0407 19.4738 94.58 19.8296 95.1737 20.0691C96.4493 20.5825 97.8752 20.5825 99.1508 20.0691C99.7452 19.8285 100.285 19.4711 100.737 19.0182C101.19 18.5653 101.546 18.0263 101.785 17.4333C102.298 16.1597 102.298 14.7384 101.785 13.4648C101.544 12.8753 101.187 12.3398 100.735 11.8899C100.283 11.44 99.7445 11.0848 99.1523 10.8452C97.877 10.3318 96.4512 10.3318 95.1759 10.8452C94.5811 11.0851 94.041 11.442 93.5879 11.8945C93.1348 12.347 92.7779 12.8858 92.5386 13.4788C92.2783 14.1079 92.1474 14.7826 92.1535 15.463M113.835 10.2457C113.164 10.2457 112.52 10.5117 112.046 10.9855C111.57 11.4594 111.303 12.102 111.303 12.7721C111.303 13.4422 111.57 14.0848 112.046 14.5587C112.28 14.7932 112.559 14.9792 112.866 15.1062C113.173 15.2331 113.503 15.2984 113.835 15.2984C114.056 15.2962 114.276 15.2647 114.487 15.2029C114.694 15.1427 114.894 15.0619 115.084 14.9605C115.147 14.9267 115.214 14.8996 115.283 14.8797C115.347 14.858 115.414 14.8466 115.482 14.8459C115.584 14.8442 115.685 14.8717 115.772 14.9253C115.857 14.9767 115.937 15.0384 116.009 15.1082L116.076 15.1758C115.643 15.5905 115.101 15.8765 114.513 16.0015C114.292 16.0529 114.065 16.0786 113.837 16.0786C113.247 16.0792 112.668 15.9222 112.159 15.6239C111.592 15.2972 111.135 14.8108 110.846 14.2259C110.556 13.641 110.446 12.9839 110.531 12.3372C110.615 11.6888 110.89 11.0798 111.321 10.5869C111.753 10.094 112.321 9.73933 112.954 9.56767C113.241 9.48539 113.539 9.44572 113.837 9.44793C114.06 9.44646 114.283 9.46996 114.501 9.51772C115.097 9.64498 115.645 9.9341 116.086 10.353L116.019 10.4206C115.944 10.4983 115.858 10.565 115.764 10.6189C115.668 10.6681 115.562 10.6926 115.454 10.6902C115.386 10.6917 115.319 10.681 115.255 10.6586C115.196 10.6375 115.139 10.6109 115.084 10.5792C114.897 10.4712 114.696 10.3878 114.487 10.3309C114.274 10.2788 114.055 10.2502 113.835 10.2457ZM116.464 12.7721C116.464 12.1846 116.621 11.6077 116.92 11.1008C117.064 10.8555 117.239 10.6285 117.441 10.4264C117.85 10.0236 118.356 9.73199 118.91 9.57942C119.509 9.41295 120.143 9.4187 120.739 9.59601C121.335 9.77333 121.869 10.115 122.278 10.5814C122.688 11.048 122.959 11.6204 123.058 12.2329C123.156 12.8454 123.08 13.4732 122.837 14.0445C122.655 14.4778 122.382 14.8672 122.035 15.1865C121.689 15.5059 121.279 15.7477 120.831 15.8957C120.383 16.0431 119.909 16.0932 119.441 16.0425C118.972 15.9918 118.519 15.8415 118.114 15.6018C117.867 15.4598 117.639 15.2865 117.436 15.0861C117.237 14.8824 117.064 14.6552 116.921 14.4096C116.631 13.9114 116.474 13.3478 116.464 12.7721ZM117.247 12.7721C117.249 13.2355 117.38 13.6894 117.625 14.0832C117.87 14.477 118.221 14.7953 118.637 15.0028C119.053 15.2102 119.519 15.2987 119.982 15.2583C120.446 15.2179 120.889 15.0502 121.263 14.7739C121.636 14.4966 121.924 14.122 122.097 13.6917C122.269 13.2613 122.319 12.7918 122.24 12.335C122.162 11.8782 121.958 11.4519 121.652 11.1032C121.345 10.7545 120.948 10.4969 120.504 10.3589C120.126 10.2433 119.726 10.2179 119.336 10.2848C118.947 10.3517 118.579 10.5091 118.261 10.7441C117.944 10.9791 117.687 11.2851 117.511 11.6374C117.335 11.9898 117.244 12.3785 117.247 12.7721ZM129.381 15.9831C129.35 15.9512 129.325 15.9141 129.308 15.8737C129.285 15.8256 129.268 15.775 129.257 15.7231C129.245 15.651 129.239 15.578 129.24 15.5049V15.2507C129.052 15.4246 128.847 15.5783 128.627 15.7091C128.455 15.8099 128.273 15.8942 128.084 15.9611C127.927 16.015 127.763 16.0502 127.598 16.0661C127.452 16.081 127.306 16.0884 127.16 16.0882C126.725 16.0926 126.295 16.0047 125.897 15.8303C125.517 15.6626 125.174 15.4211 124.889 15.1199C124.601 14.8151 124.374 14.458 124.221 14.068C123.897 13.2382 123.897 12.3177 124.221 11.488C124.374 11.0979 124.601 10.7408 124.889 10.436C125.181 10.1279 125.533 9.88296 125.923 9.71638C126.314 9.54979 126.735 9.46516 127.16 9.46776C127.306 9.46776 127.452 9.47511 127.598 9.4898C127.764 9.50523 127.927 9.54122 128.084 9.59705C128.273 9.66244 128.455 9.74618 128.627 9.84683C128.849 9.97391 129.057 10.1223 129.25 10.2891V7.21909H130.033V15.9831H129.381ZM127.156 10.2516C126.82 10.2482 126.488 10.321 126.186 10.4646C125.899 10.601 125.641 10.7916 125.428 11.0259C125.215 11.2627 125.048 11.5373 124.937 11.8354C124.819 12.1366 124.76 12.4584 124.762 12.7824C124.76 13.1107 124.819 13.4369 124.937 13.7447C125.047 14.0437 125.214 14.3192 125.428 14.5565C125.642 14.7886 125.899 14.9767 126.186 15.1097C126.49 15.2478 126.821 15.3153 127.156 15.308C127.54 15.3078 127.92 15.2246 128.27 15.0641C128.634 14.9065 128.967 14.6831 129.25 14.4052V11.1706C128.968 10.8846 128.636 10.653 128.27 10.4874C127.919 10.3307 127.54 10.2499 127.156 10.2516ZM134.736 9.46409C135.282 9.46407 135.819 9.60029 136.298 9.86028C136.778 10.1203 137.184 10.4958 137.48 10.9524C137.679 11.258 137.828 11.593 137.923 11.9442C137.942 12.0147 137.952 12.0867 137.953 12.1587C137.955 12.2608 137.935 12.3622 137.895 12.4562C137.858 12.5458 137.806 12.6285 137.741 12.7008C137.676 12.7719 137.596 12.8287 137.508 12.8676C137.418 12.9093 137.319 12.9302 137.22 12.9286H132.211C132.23 13.4051 132.387 13.8658 132.664 14.2547C132.942 14.6436 133.326 14.9439 133.772 15.1192C134.078 15.2404 134.405 15.3021 134.734 15.3007C134.851 15.2992 134.967 15.2874 135.082 15.2647C135.339 15.2119 135.588 15.1272 135.824 15.0127C135.939 14.9591 136.05 14.8973 136.157 14.8283C136.219 14.7907 136.286 14.7639 136.357 14.749C136.421 14.7335 136.489 14.7254 136.555 14.7247C136.614 14.7247 136.673 14.7321 136.731 14.7467C136.78 14.7609 136.828 14.7809 136.874 14.8063C136.922 14.8342 136.967 14.8658 137.009 14.9018L137.152 15.0193C136.834 15.3335 136.463 15.5898 136.056 15.7767C135.85 15.8722 135.635 15.9471 135.414 16.0007C135.192 16.0566 134.964 16.0845 134.736 16.0845C134.438 16.0857 134.142 16.0456 133.855 15.9655C133.577 15.8881 133.31 15.7761 133.06 15.632C132.813 15.4892 132.585 15.3151 132.383 15.1141C131.975 14.7068 131.679 14.2015 131.524 13.647C131.445 13.3609 131.405 13.0653 131.405 12.7684C131.403 12.3247 131.494 11.8869 131.672 11.4799C132.015 10.6896 132.65 10.061 133.445 9.72414C133.853 9.54913 134.292 9.46056 134.736 9.46409ZM134.736 10.2457C134.119 10.242 133.522 10.4621 133.056 10.865C132.601 11.2642 132.308 11.8156 132.233 12.4151C132.26 12.3511 132.296 12.2916 132.34 12.2388C132.366 12.2064 132.399 12.1807 132.437 12.1638C132.475 12.1468 132.517 12.139 132.559 12.141H137.16C137.033 11.5805 136.712 11.0824 136.253 10.7342C136.038 10.5716 135.797 10.4467 135.539 10.3647C135.282 10.2829 135.014 10.2427 134.744 10.2457H134.736ZM111.863 18.5705V27.3345H111.079V18.5705H111.863ZM113.7 21.8469C113.756 21.776 113.817 21.7097 113.883 21.6485C113.945 21.5861 114.012 21.5273 114.082 21.4722C114.148 21.4134 114.219 21.3605 114.295 21.3135C114.542 21.1673 114.805 21.0483 115.078 20.9587C115.385 20.8632 115.705 20.8177 116.026 20.8235C116.325 20.8162 116.623 20.861 116.906 20.9587C117.143 21.0447 117.364 21.1732 117.556 21.3378C117.737 21.4964 117.89 21.6867 118.005 21.899C118.125 22.1194 118.22 22.3523 118.287 22.594C118.357 22.8445 118.406 23.1009 118.434 23.3594C118.463 23.6166 118.478 23.8752 118.478 24.1337V27.3389H117.816C117.784 27.291 117.756 27.2407 117.733 27.1883C117.699 27.1023 117.683 27.0103 117.687 26.918V26.6226C117.512 26.7681 117.322 26.8944 117.12 26.9995C116.929 27.1016 116.729 27.1861 116.524 27.2537C116.337 27.3171 116.144 27.3622 115.949 27.3881C115.774 27.4143 115.598 27.4275 115.422 27.4278H115.331C115.06 27.4228 114.791 27.3747 114.535 27.2853C114.294 27.202 114.07 27.0763 113.873 26.9143C113.682 26.7573 113.527 26.5627 113.415 26.3427C113.302 26.1096 113.245 25.8532 113.249 25.5942C113.244 25.3113 113.305 25.0311 113.426 24.7751C113.55 24.5238 113.737 24.3086 113.969 24.1499C114.245 23.9634 114.552 23.829 114.877 23.7532C115.302 23.6558 115.738 23.6104 116.174 23.618C116.321 23.618 116.476 23.618 116.641 23.6379C116.806 23.6577 116.961 23.6636 117.104 23.6812C117.247 23.6988 117.37 23.7128 117.478 23.729L117.677 23.7606C117.658 23.3931 117.591 23.0296 117.478 22.6792C117.397 22.4358 117.269 22.2107 117.1 22.0166C116.964 21.8619 116.788 21.7467 116.591 21.683C116.192 21.56 115.765 21.56 115.366 21.683C115.173 21.7492 114.988 21.8395 114.817 21.9526L114.619 22.0775C114.533 22.1253 114.435 22.1482 114.336 22.1436C114.157 22.1386 113.984 22.0734 113.847 21.9585L113.7 21.8469ZM115.331 26.6439C115.512 26.6414 115.693 26.6229 115.871 26.5888C116.289 26.5064 116.696 26.3757 117.084 26.1995C117.289 26.1091 117.487 26.0085 117.681 25.8983V24.4952L117.482 24.4709C117.36 24.4556 117.238 24.4451 117.116 24.4393L116.653 24.4158C116.488 24.4158 116.329 24.4033 116.178 24.4033C115.89 24.4019 115.602 24.421 115.317 24.4614C115.083 24.4931 114.855 24.56 114.641 24.6597C114.462 24.7415 114.308 24.8681 114.193 25.027C114.08 25.196 114.023 25.3958 114.03 25.5986C114.031 25.7359 114.063 25.8719 114.125 25.9953C114.191 26.1246 114.283 26.2377 114.396 26.3288C114.514 26.4265 114.649 26.5029 114.794 26.5528C114.96 26.6079 115.135 26.6366 115.311 26.6366L115.331 26.6439ZM120.103 27.3345V18.5756H120.886V21.7132C121.065 21.5273 121.266 21.3635 121.483 21.2254C121.655 21.1157 121.839 21.0251 122.031 20.955C122.191 20.8963 122.359 20.8573 122.529 20.8404C122.676 20.8273 122.824 20.8207 122.972 20.8206C123.397 20.8162 123.819 20.9 124.21 21.0667C124.601 21.2334 124.952 21.4793 125.243 21.7888C125.53 22.0944 125.755 22.4515 125.909 22.8408C126.234 23.6703 126.234 24.5913 125.909 25.4208C125.756 25.8098 125.53 26.1661 125.243 26.4706C124.957 26.7712 124.615 27.0127 124.235 27.1809C123.837 27.3558 123.407 27.4445 122.972 27.441C122.833 27.441 122.686 27.441 122.531 27.419C122.363 27.401 122.197 27.365 122.037 27.3117C121.846 27.2463 121.662 27.1606 121.488 27.0561C121.274 26.9221 121.074 26.7657 120.892 26.5896V26.9745C120.897 27.0531 120.886 27.1318 120.862 27.2067C120.844 27.2544 120.823 27.2978 120.801 27.3433L120.103 27.3345ZM122.971 26.6586C123.305 26.6623 123.637 26.5903 123.941 26.4478C124.227 26.3113 124.484 26.1212 124.698 25.888C124.911 25.6515 125.079 25.3767 125.191 25.0785C125.307 24.7758 125.366 24.4555 125.364 24.1315C125.366 23.8017 125.307 23.4744 125.191 23.1655C125.08 22.8665 124.913 22.5914 124.698 22.3552C124.485 22.1219 124.228 21.9331 123.941 21.7998C123.636 21.6633 123.305 21.5956 122.971 21.6015C122.782 21.6015 122.594 21.6235 122.411 21.6669C122.222 21.711 122.038 21.7719 121.861 21.8498C121.498 22.0134 121.168 22.2406 120.886 22.5205V25.7492C121.164 26.0334 121.495 26.2601 121.861 26.4162C122.039 26.4926 122.222 26.5528 122.411 26.5962C122.595 26.6388 122.783 26.6601 122.972 26.6601L122.971 26.6586ZM126.697 26.428L127.007 26.2737C127.085 26.2333 127.173 26.2131 127.261 26.2149C127.333 26.2149 127.404 26.2237 127.474 26.2392C127.571 26.2685 127.662 26.3148 127.744 26.3743C127.996 26.5489 128.295 26.6418 128.602 26.6403C128.772 26.6403 128.941 26.6168 129.105 26.569C129.268 26.5249 129.424 26.4522 129.564 26.356C129.702 26.2619 129.818 26.1385 129.904 25.9953C129.996 25.8381 130.045 25.6595 130.047 25.4774C130.041 25.3588 130.017 25.2417 129.977 25.1299C129.935 25.0171 129.867 24.9154 129.779 24.8324C129.659 24.7248 129.526 24.6341 129.381 24.5628C129.179 24.4604 128.971 24.372 128.756 24.2983L128.621 24.2542C128.409 24.1808 128.198 24.1044 127.989 24.0206C127.787 23.9396 127.597 23.83 127.426 23.6952C127.26 23.5591 127.124 23.3893 127.029 23.1971C126.917 22.9604 126.863 22.7005 126.872 22.439C126.869 22.2079 126.925 21.9799 127.035 21.7763C127.141 21.5846 127.285 21.4164 127.46 21.2841C127.636 21.1503 127.834 21.0482 128.045 20.9822C128.253 20.9146 128.469 20.875 128.687 20.8647H128.742C128.947 20.8706 129.148 20.9102 129.339 20.9822C129.508 21.0454 129.67 21.1277 129.82 21.2261C129.952 21.3121 130.076 21.4098 130.188 21.5178C130.292 21.6177 130.387 21.7029 130.443 21.7719L130.328 21.8696C130.261 21.9262 130.191 21.9754 130.115 22.018C130.056 22.0559 129.989 22.0783 129.919 22.0832C129.85 22.0881 129.78 22.0753 129.717 22.0459C129.665 22.0246 129.615 22.0001 129.566 21.9725C129.514 21.9446 129.462 21.913 129.411 21.8814C129.358 21.8472 129.302 21.816 129.246 21.7881C129.15 21.7359 129.046 21.6992 128.939 21.6786C128.698 21.6304 128.448 21.6553 128.222 21.7499C128.102 21.7998 127.993 21.8711 127.899 21.9607C127.822 22.0319 127.76 22.1185 127.719 22.2149C127.685 22.2844 127.666 22.3598 127.663 22.4368C127.657 22.5866 127.693 22.7343 127.769 22.8636C127.842 22.9811 127.938 23.081 128.053 23.1596C128.177 23.2434 128.31 23.3139 128.45 23.3675C128.599 23.4234 128.751 23.4792 128.906 23.5328L128.967 23.5504C129.201 23.6276 129.43 23.7172 129.654 23.8201C129.868 23.9214 130.069 24.05 130.25 24.2035C130.423 24.3519 130.565 24.5326 130.669 24.7354C130.781 24.9631 130.836 25.2136 130.83 25.4671C130.831 25.7265 130.772 25.9827 130.658 26.2157C130.543 26.4522 130.381 26.6638 130.183 26.8364C129.974 27.0201 129.733 27.1648 129.473 27.2618C129.194 27.3668 128.897 27.4197 128.599 27.4182C128.225 27.4192 127.856 27.33 127.524 27.1582C127.19 26.9884 126.906 26.7372 126.697 26.428ZM75.846 18.6248C75.7605 18.6469 75.6741 18.6645 75.5871 18.6762C75.6793 18.688 75.7701 18.7056 75.86 18.7299L76.1101 18.7975C76.1817 18.8173 76.2555 18.8415 76.3248 18.8665L81.6423 21.5479L83.5929 22.5396L86.1661 23.8362C86.4014 23.9552 86.6161 24.1117 86.802 24.299C86.9946 24.4922 87.162 24.7097 87.2992 24.9455C87.4387 25.1798 87.5478 25.4303 87.6253 25.6919C87.7079 25.9483 87.7492 26.2164 87.7485 26.4853V26.8452L83.2107 24.5642L82.5645 24.2388L80.9585 23.4292L80.5881 23.2426L75.3466 20.609C75.0353 20.4582 74.7333 20.2892 74.4421 20.1029C74.2604 19.9838 74.1009 19.8342 73.9707 19.6606C73.8705 19.5249 73.8082 19.3653 73.79 19.1978C73.7712 18.9895 73.7626 18.7804 73.7642 18.5712V18.4992C73.762 18.2898 73.7701 18.0805 73.79 17.8726C73.8099 17.7256 73.8726 17.5868 73.9707 17.4759C74.105 17.3326 74.2651 17.2151 74.4421 17.1306C74.6546 17.0204 74.9571 16.8823 75.3466 16.7097L80.594 14.0599L80.9622 13.8733L82.5689 13.0674L83.213 12.7442L87.7485 10.458V10.8195C87.7478 11.0883 87.7057 11.3557 87.6253 11.6129C87.5464 11.8824 87.437 12.1422 87.2992 12.3871C87.1642 12.6332 86.9968 12.861 86.802 13.0637C86.619 13.2562 86.4036 13.4149 86.1661 13.5339L83.615 14.8063L81.6659 15.7767L76.3292 18.45C76.1762 18.5272 76.0138 18.5845 75.846 18.6204M15.2817 26.4992V29.0278H0.000406584V28.1205C-0.0120402 27.3246 0.261648 26.5505 0.772068 25.938L11.7583 10.7776H0.831824V8.24756H15.2994V9.11661C15.3264 9.8182 15.1211 10.5092 14.7151 11.0832L3.38067 26.7615C3.44337 26.7159 3.50977 26.6763 3.57985 26.6425C3.64551 26.6168 3.73699 26.5866 3.84986 26.5528C3.9856 26.5183 4.12577 26.5014 4.26594 26.5036L15.2817 26.4992Z" fill="#2E368E"/>
<path d="M79.8892 24.6318C78.7228 25.713 77.2643 26.4309 75.6934 26.6972C74.1224 26.9634 72.5075 26.7664 71.0476 26.1304C69.5867 25.4936 68.3442 24.4461 67.4725 23.1162C66.5998 21.7856 66.1351 20.2306 66.1351 18.6413C66.1351 17.052 66.5998 15.497 67.4725 14.1663C68.3453 12.8367 69.5876 11.7891 71.0476 11.1529C72.5075 10.5166 74.1224 10.3194 75.6934 10.5857C77.2645 10.852 78.7229 11.5701 79.8892 12.6516L81.8575 11.6584L82.2197 11.4784C82.1013 11.3409 81.977 11.2085 81.8471 11.0817C81.2007 10.4341 80.4729 9.87232 79.6819 9.41041C78.8799 8.94377 78.0214 8.58088 77.1272 8.33052C74.8104 7.68801 72.3431 7.84835 70.1298 8.78525C67.5956 9.8228 65.5568 11.7876 64.4324 14.2758C63.3064 16.7666 63.1789 19.5917 64.0761 22.173C64.9716 24.752 66.8247 26.8917 69.2549 28.1528C71.6826 29.4121 74.5032 29.6953 77.1345 28.944C78.029 28.6935 78.8877 28.3306 79.69 27.8641C80.4812 27.4036 81.209 26.8428 81.8553 26.1958C81.991 26.0687 82.1083 25.9379 82.2271 25.7991L81.8634 25.6162L79.8892 24.6318ZM19.5971 2.39845C19.5977 2.06485 19.6804 1.73649 19.838 1.44208C19.9955 1.14766 20.2231 0.896161 20.5008 0.709561C20.7785 0.523029 21.0982 0.407524 21.4314 0.373258C21.7647 0.338992 22.1013 0.38702 22.4115 0.513097C22.7216 0.639174 22.9959 0.839415 23.2098 1.09611C23.4238 1.35281 23.571 1.65806 23.6383 1.98486C23.7067 2.3116 23.6937 2.65006 23.6003 2.97061C23.507 3.29116 23.3361 3.58404 23.1027 3.82362C22.8664 4.06168 22.575 4.2383 22.2541 4.33796C21.9332 4.43762 21.5927 4.45726 21.2623 4.39516C20.932 4.33306 20.6221 4.19112 20.3598 3.98182C20.0975 3.77252 19.8908 3.50225 19.7579 3.19478C19.6504 2.94377 19.5957 2.67352 19.5971 2.40066V2.39845ZM22.88 28.9939H20.3488V8.24751H22.88V28.9939ZM31.3727 8.24751C31.4464 8.39664 31.5054 8.55164 31.5519 8.71179C31.6168 8.99976 31.6434 9.29581 31.6309 9.59113V11.391C32.1022 10.8155 32.6403 10.2976 33.2339 9.84825C34.3288 9.01867 35.5889 8.43136 36.9299 8.12556C37.552 7.98389 38.1878 7.91097 38.8259 7.90811C39.8805 7.89072 40.9256 8.10965 41.8838 8.5487C42.7839 8.97544 43.5721 9.60467 44.1862 10.3867C44.8529 11.2508 45.3495 12.2326 45.6499 13.2804C46.0077 14.5124 46.181 15.7913 46.1648 17.0747V28.9822H43.6433V17.074C43.6433 14.9583 43.2309 13.3215 42.4068 12.1667C41.582 11.0119 40.3117 10.4359 38.5965 10.4404C37.6853 10.4327 36.7779 10.5589 35.9038 10.815C35.1278 11.0399 34.3931 11.3871 33.7275 11.8435C33.136 12.2453 32.6297 12.759 32.2373 13.3553C31.8764 13.8941 31.6628 14.5172 31.6176 15.1632V28.9895H29.096V8.24751H31.3727ZM53.1658 28.9903V10.577H49.4233V9.11656C49.4233 8.5105 50.2289 8.20784 51.8394 8.20784H53.1658V5.67927C53.1574 4.97638 53.2738 4.27754 53.5096 3.61499C53.728 3.0126 54.0658 2.46163 54.5041 1.99368C54.9437 1.53175 55.4768 1.16795 56.068 0.926274C56.7172 0.662924 57.4128 0.532024 58.1138 0.541333C58.4524 0.545006 58.7895 0.578798 59.1222 0.64271C59.4985 0.709561 59.8688 0.802858 60.2318 0.920397C60.6021 1.04234 60.9643 1.18927 61.3155 1.35897C61.6416 1.51177 61.9558 1.68808 62.2561 1.88642L61.8407 2.48147C61.6683 2.72864 61.4345 2.92707 61.162 3.05741C60.864 3.16026 60.549 3.20654 60.234 3.19258C59.7671 3.17018 59.3051 3.08745 58.8596 2.94648L58.6412 2.90681C58.5628 2.89299 58.4838 2.88318 58.4044 2.87743C58.3152 2.87743 58.2156 2.86714 58.1078 2.86714C57.745 2.86 57.3868 2.94898 57.0699 3.12499C56.7748 3.29543 56.518 3.52536 56.3166 3.80011C56.1123 4.07706 55.9552 4.38634 55.8511 4.71472C55.7487 5.02948 55.6949 5.35795 55.6918 5.68882V8.24898H61.4925V10.5792H55.6992V28.9903H53.1658Z" fill="#28A8E0"/>
</svg>
