<svg width="30" height="30" viewBox="0 0 30 30" fill="none" xmlns="http://www.w3.org/2000/svg">
<rect width="30" height="30" fill="white"/>
<path d="M18.3775 26.0777L18.3912 26.0872C19.5717 26.8389 20.9734 27.1653 22.3646 27.0126C23.7558 26.8598 25.0532 26.2369 26.0425 25.2469L26.902 24.3875C27.0924 24.1972 27.2435 23.9712 27.3466 23.7225C27.4496 23.4737 27.5027 23.2071 27.5027 22.9379C27.5027 22.6686 27.4496 22.402 27.3466 22.1533C27.2435 21.9045 27.0924 21.6785 26.902 21.4882L23.2771 17.8661C23.0868 17.6756 22.8608 17.5246 22.6121 17.4215C22.3633 17.3184 22.0967 17.2653 21.8274 17.2653C21.5582 17.2653 21.2916 17.3184 21.0428 17.4215C20.7941 17.5246 20.5681 17.6756 20.3778 17.8661C19.9934 18.2503 19.4722 18.4661 18.9288 18.4661C18.3854 18.4661 17.8642 18.2503 17.4798 17.8661L11.6839 12.0688C11.2997 11.6845 11.0838 11.1633 11.0838 10.6198C11.0838 10.0764 11.2997 9.55516 11.6839 9.17082C11.8743 8.98049 12.0254 8.7545 12.1285 8.50576C12.2316 8.25702 12.2846 7.99041 12.2846 7.72116C12.2846 7.4519 12.2316 7.18529 12.1285 6.93655C12.0254 6.68781 11.8743 6.46182 11.6839 6.27149L8.06041 2.64938C7.67607 2.26516 7.15487 2.04932 6.61142 2.04932C6.06797 2.04932 5.54678 2.26516 5.16244 2.64938L4.30166 3.50879C3.31188 4.49825 2.68929 5.79578 2.53676 7.18697C2.38422 8.57816 2.71088 9.97977 3.46274 11.1602L3.47094 11.1738C7.44171 17.0487 12.5019 22.108 18.3775 26.0777Z" fill="white" stroke="#1F6CAB" stroke-width="3" stroke-linecap="round" stroke-linejoin="round"/>
</svg>
